<svg width="232" height="232" viewBox="0 0 232 232" fill="none" xmlns="http://www.w3.org/2000/svg">
<path d="M27 27C64 -9 123 -9 159 27C190 58 195 106 173 142L225 194C234 203 234 217 225 225C217 234 203 234 194 225L142 173C106 195 58 190 27 159C-9 123 -9 64 27 27ZM47 47C22 73 22 114 47 139C73 165 114 165 139 139C165 114 165 73 139 47C114 22 73 22 47 47Z" fill="black"/>
<path d="M54 91C53 101 38 100 39 90C40 76 45 64 55 55C64 45 76 40 90 39C100 38 101 53 91 54C81 55 73 59 66 66C59 73 55 81 54 91Z" fill="black"/>
</svg>
