<svg width="24" height="24" viewBox="0 0 24 24" fill="none" xmlns="http://www.w3.org/2000/svg">
<path d="M23.846 10.4788L12.2899 0.110964C12.1248 -0.0369881 11.8748 -0.0369881 11.7092 0.110964L0.144516 10.4874C0.010287 10.6079 -0.0355997 10.7983 0.0287274 10.9664C0.0930545 11.1345 0.254301 11.2456 0.434417 11.2456H23.5651C23.8053 11.2456 24 11.0509 24 10.8107C24 10.6773 23.9395 10.5585 23.846 10.4788Z" fill="black"/>
<path d="M3.03967 11.8253V22.8098C3.03967 23.0496 3.23394 23.2443 3.47452 23.2443H5.7174V16.9261C5.7174 16.6855 5.91209 16.4908 6.15225 16.4908H9.4042C9.64435 16.4908 9.83905 16.6855 9.83905 16.9261V23.2438H20.5259C20.7661 23.2438 20.9608 23.0491 20.9608 22.8094V11.8253H3.03967Z" fill="black"/>
</svg>
