<svg width="24" height="24" viewBox="0 0 24 24" fill="none" xmlns="http://www.w3.org/2000/svg">
<path d="M0.987764 0C0.453838 0 0 0.453838 0 0.987764V20.5829C0 20.8231 0.080089 21.0901 0.266963 21.277L2.69633 23.7063C2.8832 23.8932 3.15017 24 3.39043 24H22.9855C23.5462 24 24 23.5462 24 22.9855V0.987764C24 0.453838 23.5462 0 22.9855 0H0.987764ZM18.634 22.0512C18.634 22.5851 18.3137 22.9855 17.8865 22.9855H6.16685C5.71301 22.9855 5.39266 22.5851 5.39266 22.0512V15.1635C5.39266 14.6563 5.71301 14.1758 6.16685 14.1758H17.8865C18.3404 14.1758 18.634 14.6563 18.634 15.1635V22.0512ZM19.6218 9.18354C19.6218 9.74416 19.168 10.1713 18.634 10.1713H5.39266C4.88543 10.1713 4.40489 9.71746 4.40489 9.18354V2.80311C4.40489 2.24249 4.85873 1.81535 5.39266 1.81535H18.634C19.168 1.81535 19.6218 2.26919 19.6218 2.80311V9.18354ZM9.90434 20.7964V16.4182H7.47497V20.8231H9.90434V20.7964Z" fill="black"/>
</svg>
